<svg width="667" height="667" viewBox="0 0 667 667" fill="none" xmlns="http://www.w3.org/2000/svg">
<path d="M133.333 66.6667C115.652 66.6667 98.6953 73.6905 86.1929 86.1929C73.6905 98.6953 66.6667 115.652 66.6667 133.333V533.333C66.6667 551.014 73.6905 567.971 86.1929 580.474C98.6953 592.976 115.652 600 133.333 600H533.333C551.014 600 567.971 592.976 580.474 580.474C592.976 567.971 600 551.014 600 533.333V133.333C600 115.652 592.976 98.6953 580.474 86.1929C567.971 73.6905 551.014 66.6667 533.333 66.6667H133.333ZM133.333 0H533.333C568.696 0 602.609 14.0476 627.614 39.0524C652.619 64.0573 666.667 97.9711 666.667 133.333V533.333C666.667 568.696 652.619 602.609 627.614 627.614C602.609 652.619 568.696 666.667 533.333 666.667H133.333C97.9711 666.667 64.0573 652.619 39.0524 627.614C14.0476 602.609 0 568.696 0 533.333V133.333C0 97.9711 14.0476 64.0573 39.0524 39.0524C64.0573 14.0476 97.9711 0 133.333 0Z" fill="black"/>
<path fill-rule="evenodd" clip-rule="evenodd" d="M417.143 127H247.857C185.528 127 135 179.83 135 245V422C135 487.168 185.528 540 247.857 540H417.143C479.471 540 530 487.168 530 422V245C530 179.83 479.471 127 417.143 127Z" stroke="black" stroke-width="48" stroke-linecap="round" stroke-linejoin="round"/>
<path fill-rule="evenodd" clip-rule="evenodd" d="M332.5 422C285.831 422 248 382.379 248 333.5C248 284.621 285.831 245 332.5 245C379.169 245 417 284.621 417 333.5C417 356.97 408.097 379.482 392.25 396.078C376.403 412.675 354.909 422 332.5 422Z" stroke="black" stroke-width="48" stroke-linecap="round" stroke-linejoin="round"/>
<path d="M445.5 186C429.76 186 417 199.208 417 215.5C417 231.792 429.76 245 445.5 245C461.24 245 474 231.792 474 215.5C474 199.208 461.24 186 445.5 186Z" fill="black"/>
<path d="M445 201C437.268 201 431 207.492 431 215.5C431 223.508 437.268 230 445 230C452.732 230 459 223.508 459 215.5C459 207.492 452.732 201 445 201Z" stroke="black" stroke-width="32" stroke-linecap="round"/>
</svg>
